<svg width="120" height="30" viewBox="0 0 120 30" fill="none" xmlns="http://www.w3.org/2000/svg">
<path d="M113.089 6.5829C114.096 7.43863 114.392 8.73858 113.706 10.0351C113.044 11.2872 111.628 12.2258 110.047 12.6093C109.743 11.1781 110.748 9.61503 112.497 8.86415C112.266 8.91515 112.037 8.97915 111.815 9.05556C111.059 9.31503 110.401 9.70855 109.916 10.1913C109.646 10.4599 109.436 10.75 109.292 11.0507C109.181 11.4417 109.084 11.859 109.009 12.2938C108.989 12.4062 108.972 12.5181 108.956 12.6288C109.575 13.3217 110.057 14.0997 110.38 14.9335C110.437 14.8608 110.494 14.787 110.554 14.7167C110.751 14.4858 110.959 14.2757 111.161 14.1005C111.363 13.9255 111.556 13.7886 111.726 13.7011C111.787 13.6696 111.846 13.6461 111.9 13.6278C112.388 13.4215 112.961 13.3706 113.486 13.4735C113.662 13.9927 113.471 14.5711 112.915 14.9804C112.378 15.3753 111.633 15.5125 110.955 15.3993C111.176 14.7685 111.908 14.3074 112.733 14.2997C112.636 14.2814 112.538 14.2665 112.44 14.2597C112.098 14.2361 111.759 14.2841 111.466 14.3974C111.297 14.4626 111.149 14.5502 111.023 14.6522C110.894 14.7888 110.763 14.9373 110.638 15.0966C110.591 15.1561 110.547 15.2167 110.504 15.2763C110.51 15.2955 110.517 15.3146 110.524 15.3339C110.887 16.4698 110.946 17.6558 110.706 18.8085C110.576 19.4372 110.651 20.1014 110.953 20.6679C111.085 20.914 111.204 21.1613 111.313 21.4042C111.562 21.9624 111.731 22.538 111.817 23.119C111.951 24.0333 111.097 24.6984 110.179 24.5956L109.385 24.5067C108.886 24.4507 108.538 23.9934 108.484 23.494C108.476 23.4251 108.467 23.3557 108.456 23.287C108.373 22.7768 107.759 22.6454 107.454 23.0634C107.079 23.5782 106.81 24.148 106.653 24.7479C106.471 25.4461 105.883 26.0355 105.162 25.9989C104.503 25.9652 103.971 25.4212 104.074 24.7694C104.245 23.6976 104.667 22.6788 105.321 21.7802C105.74 21.2051 106.247 20.6904 106.823 20.247L108.508 18.8202C108.871 18.5131 109.127 18.0872 109.142 17.6122C109.162 16.9786 109.073 16.3429 108.876 15.7255C108.523 14.6222 107.837 13.6234 106.891 12.8241C106.826 12.7691 106.77 12.7059 106.725 12.6376C106.674 12.6048 106.624 12.5714 106.572 12.539C106.196 12.3018 105.821 12.0881 105.456 11.9003C105.144 11.7912 104.801 11.7249 104.44 11.706C103.784 11.6719 103.09 11.794 102.442 12.0556C102.251 12.1323 102.067 12.2213 101.891 12.3192C103.507 11.8097 105.291 12.2411 106.191 13.329C104.952 13.9795 103.392 14.1797 102.048 13.7538C100.657 13.3126 99.8509 12.3143 99.8077 11.1962C100.749 10.6676 101.895 10.4057 102.995 10.4921C103.119 10.4923 103.258 10.5047 103.409 10.5282C103.806 10.5901 104.285 10.7308 104.81 10.9423C105.335 11.1537 105.894 11.4314 106.451 11.7538C106.511 11.7881 106.569 11.8242 106.628 11.8593C106.662 11.7724 106.712 11.6901 106.779 11.6171C107.033 11.3431 107.451 11.2897 107.748 11.5155C107.941 11.6617 108.125 11.8151 108.302 11.9735C108.324 11.8584 108.346 11.743 108.371 11.6288C108.51 11.0022 108.695 10.4069 108.911 9.88466C109.128 9.36238 109.373 8.92408 109.628 8.60146C109.729 8.4736 109.831 8.36475 109.933 8.27626C110.719 7.45029 111.861 6.84812 113.089 6.5829ZM106.801 0.0018495C109.728 -0.0386524 112.583 0.825734 114.898 2.45302C117.212 4.08038 118.849 6.37447 119.539 8.9579C120.229 11.5412 119.931 14.2612 118.695 16.6708C117.626 18.756 115.907 20.5027 113.765 21.7011C113.196 22.0188 112.493 21.7783 112.181 21.2069C111.833 20.5702 112.107 19.7775 112.725 19.3974C114.246 18.4613 115.469 17.1643 116.252 15.6376C117.23 13.7312 117.465 11.5789 116.919 9.53505C116.373 7.49128 115.078 5.67598 113.247 4.38857C111.416 3.10132 109.157 2.41707 106.842 2.44912C104.526 2.48121 102.291 3.22777 100.504 4.56533C98.7172 5.90278 97.4841 7.7527 97.007 9.81044C96.53 11.8684 96.8376 14.0132 97.879 15.8915C98.9332 17.7924 101.563 17.4329 103.702 17.0468C103.776 17.0335 103.85 17.0206 103.924 17.0097C105.261 16.8124 106.645 17.0013 107.852 17.5409C108.026 17.6187 108.078 17.8368 107.968 17.9921C107.907 18.0783 107.805 18.1268 107.699 18.1249C105.737 18.0902 103.936 18.8611 102.814 20.1229C102.708 20.2415 102.623 20.3768 102.552 20.5185C102.024 21.5645 100.764 22.0431 99.7657 21.4296C97.9506 20.3141 96.4681 18.7896 95.4718 16.9931C94.1552 14.6187 93.7663 11.908 94.3693 9.30654C94.9723 6.70521 96.5313 4.36638 98.7902 2.67568C101.049 0.985142 103.874 0.0424136 106.801 0.0018495ZM106.757 10.4921C107.049 10.339 107.357 10.3318 107.599 10.4452C107.515 10.7562 107.296 11.0467 106.985 11.2099C106.693 11.3633 106.383 11.3697 106.141 11.2558C106.225 10.9449 106.447 10.6549 106.757 10.4921ZM104.454 6.36415C105.509 6.81898 106.368 7.67932 106.637 8.6747C106.905 9.66995 106.512 10.5435 105.708 11.0194L105.707 11.0185C105.872 10.7261 105.959 10.4078 105.959 10.0868C105.959 9.6918 105.827 9.30893 105.58 8.98329C105.425 8.7788 105.227 8.602 104.998 8.45986C105.595 9.13596 105.811 10.0214 105.475 10.8056C105.463 10.8338 105.447 10.8604 105.434 10.8876C104.507 10.4096 103.771 9.6167 103.526 8.70986C103.258 7.71459 103.651 6.84016 104.454 6.36415Z" fill="#17301A"/>
<path d="M12.8166 22.0005C12.4486 22.0005 11.7686 21.3365 10.7766 20.0085C9.78456 18.6645 8.58456 16.8005 7.17656 14.4165L9.38456 13.7445C10.7126 15.7605 11.8166 17.3365 12.6966 18.4725C13.5926 19.6085 14.3846 20.4325 15.0726 20.9445C15.7606 21.4565 16.4326 21.7125 17.0886 21.7125C17.1206 21.7125 17.1366 21.7605 17.1366 21.8565C17.1366 21.9525 17.1206 22.0005 17.0886 22.0005H12.8166ZM7.65656 6.92849C9.11256 6.92849 10.2406 7.20049 11.0406 7.74449C11.8406 8.27249 12.2406 9.01649 12.2406 9.97649C12.2406 10.8885 11.9766 11.7125 11.4486 12.4485C10.9366 13.1845 10.2646 13.7605 9.43256 14.1765C8.60056 14.5765 7.72856 14.7765 6.81656 14.7765C6.19256 14.7765 5.75256 14.7685 5.49656 14.7525V20.0565C5.49656 20.5525 5.53656 20.9125 5.61656 21.1365C5.69656 21.3605 5.84856 21.5125 6.07256 21.5925C6.31256 21.6725 6.68856 21.7125 7.20056 21.7125C7.23256 21.7125 7.24856 21.7605 7.24856 21.8565C7.24856 21.9525 7.23256 22.0005 7.20056 22.0005C6.67256 22.0005 6.25656 21.9925 5.95256 21.9765L4.12856 21.9525L2.37656 21.9765C2.05656 21.9925 1.62456 22.0005 1.08056 22.0005C1.03256 22.0005 1.00856 21.9525 1.00856 21.8565C1.00856 21.7605 1.03256 21.7125 1.08056 21.7125C1.59256 21.7125 1.96056 21.6725 2.18456 21.5925C2.42456 21.5125 2.58456 21.3605 2.66456 21.1365C2.76056 20.8965 2.80856 20.5365 2.80856 20.0565V8.94449C2.80856 8.46449 2.76856 8.11249 2.68856 7.88849C2.60856 7.66449 2.44856 7.51249 2.20856 7.43249C1.96856 7.33649 1.60056 7.28849 1.10456 7.28849C1.07256 7.28849 1.05656 7.24049 1.05656 7.14449C1.05656 7.04849 1.07256 7.00049 1.10456 7.00049L2.37656 7.02449C3.11256 7.05649 3.69656 7.07249 4.12856 7.07249C4.67256 7.07249 5.24056 7.04849 5.83256 7.00049C6.04056 6.98449 6.29656 6.96849 6.60056 6.95249C6.92056 6.93649 7.27256 6.92849 7.65656 6.92849ZM9.50456 10.8885C9.50456 9.57649 9.31256 8.67249 8.92856 8.17649C8.54456 7.68049 7.99256 7.43249 7.27256 7.43249C6.63256 7.43249 6.17656 7.55249 5.90456 7.79249C5.63256 8.03249 5.49656 8.43249 5.49656 8.99249V14.0805C5.88056 14.1445 6.34456 14.1765 6.88856 14.1765C7.81656 14.1765 8.48056 13.9205 8.88056 13.4085C9.29656 12.8805 9.50456 12.0405 9.50456 10.8885ZM17.8384 22.0005C17.7904 22.0005 17.7664 21.9525 17.7664 21.8565C17.7664 21.7605 17.7904 21.7125 17.8384 21.7125C18.3504 21.7125 18.7184 21.6725 18.9424 21.5925C19.1824 21.5125 19.3424 21.3605 19.4224 21.1365C19.5024 20.8965 19.5424 20.5365 19.5424 20.0565V8.94449C19.5424 8.46449 19.5024 8.11249 19.4224 7.88849C19.3424 7.66449 19.1824 7.51249 18.9424 7.43249C18.7024 7.33649 18.3344 7.28849 17.8384 7.28849C17.7904 7.28849 17.7664 7.24049 17.7664 7.14449C17.7664 7.04849 17.7904 7.00049 17.8384 7.00049H28.0144C28.1744 7.00049 28.2544 7.07249 28.2544 7.21649L28.3024 10.4085C28.3024 10.4405 28.2544 10.4645 28.1584 10.4805C28.0784 10.4965 28.0304 10.4805 28.0144 10.4325C27.7584 9.50449 27.3264 8.81649 26.7184 8.36849C26.1104 7.92049 25.3104 7.69649 24.3184 7.69649H23.5984C23.1184 7.69649 22.7664 7.80049 22.5424 8.00849C22.3184 8.21649 22.2064 8.53649 22.2064 8.96849V19.9605C22.2064 20.4245 22.2944 20.7685 22.4704 20.9925C22.6464 21.2165 22.9264 21.3285 23.3104 21.3285H24.1024C25.3504 21.3285 26.3504 21.0725 27.1024 20.5605C27.8544 20.0485 28.4064 19.2565 28.7584 18.1845C28.7584 18.1525 28.7904 18.1365 28.8544 18.1365C28.9024 18.1365 28.9424 18.1525 28.9744 18.1845C29.0224 18.2005 29.0464 18.2165 29.0464 18.2325C28.8864 19.4805 28.8064 20.6165 28.8064 21.6405C28.8064 21.7685 28.7824 21.8645 28.7344 21.9285C28.6864 21.9765 28.5904 22.0005 28.4464 22.0005H17.8384ZM27.1024 16.6485C27.1024 15.9925 26.8464 15.4805 26.3344 15.1125C25.8384 14.7285 25.1184 14.5365 24.1744 14.5365H20.9344V13.8645H24.1984C25.1264 13.8645 25.8384 13.7045 26.3344 13.3845C26.8304 13.0645 27.0784 12.6165 27.0784 12.0405C27.0784 11.9925 27.1184 11.9685 27.1984 11.9685C27.2944 11.9685 27.3424 11.9925 27.3424 12.0405L27.3184 14.2005L27.3424 15.3525C27.3744 15.8965 27.3904 16.3285 27.3904 16.6485C27.3904 16.6805 27.3424 16.6965 27.2464 16.6965C27.1504 16.6965 27.1024 16.6805 27.1024 16.6485ZM35.2806 19.9605C35.2806 20.4725 35.3366 20.8485 35.4486 21.0885C35.5606 21.3125 35.7686 21.4725 36.0726 21.5685C36.3926 21.6645 36.8966 21.7125 37.5846 21.7125C37.6326 21.7125 37.6566 21.7605 37.6566 21.8565C37.6566 21.9525 37.6326 22.0005 37.5846 22.0005C36.9286 22.0005 36.4166 21.9925 36.0486 21.9765L33.9606 21.9525L32.2086 21.9765C31.8886 21.9925 31.4566 22.0005 30.9126 22.0005C30.8646 22.0005 30.8406 21.9525 30.8406 21.8565C30.8406 21.7605 30.8646 21.7125 30.9126 21.7125C31.4246 21.7125 31.7926 21.6725 32.0166 21.5925C32.2566 21.5125 32.4166 21.3605 32.4966 21.1365C32.5766 20.8965 32.6166 20.5365 32.6166 20.0565V8.94449C32.6166 8.46449 32.5766 8.11249 32.4966 7.88849C32.4166 7.66449 32.2566 7.51249 32.0166 7.43249C31.7766 7.33649 31.4086 7.28849 30.9126 7.28849C30.8646 7.28849 30.8406 7.24049 30.8406 7.14449C30.8406 7.04849 30.8646 7.00049 30.9126 7.00049L32.1846 7.02449C32.9206 7.05649 33.5046 7.07249 33.9366 7.07249C34.3206 7.07249 34.7766 7.04849 35.3046 7.00049C35.5126 6.98449 35.7766 6.96849 36.0966 6.95249C36.4166 6.93649 36.7846 6.92849 37.2006 6.92849C38.8326 6.92849 40.1206 7.27249 41.0646 7.96049C42.0086 8.63249 42.4806 9.68049 42.4806 11.1045C42.4806 12.0965 42.2246 12.9365 41.7126 13.6245C41.2006 14.3125 40.5366 14.8325 39.7206 15.1845C38.9206 15.5365 38.0966 15.7125 37.2486 15.7125C36.8166 15.7125 36.4406 15.6725 36.1206 15.5925C36.0886 15.5925 36.0726 15.5525 36.0726 15.4725C36.0726 15.4245 36.0806 15.3765 36.0966 15.3285C36.1286 15.2805 36.1606 15.2645 36.1926 15.2805C36.4326 15.3445 36.7046 15.3765 37.0086 15.3765C37.7446 15.3765 38.3526 15.0325 38.8326 14.3445C39.3286 13.6565 39.5766 12.6805 39.5766 11.4165C39.5766 10.1525 39.3046 9.17649 38.7606 8.48849C38.2326 7.80049 37.4566 7.45649 36.4326 7.45649C35.9846 7.45649 35.6806 7.56049 35.5206 7.76849C35.3606 7.97649 35.2806 8.38449 35.2806 8.99249V19.9605ZM57.0662 10.0725C57.0662 9.20849 56.8662 8.52849 56.4662 8.03249C56.0822 7.53649 55.5382 7.28849 54.8342 7.28849C54.8022 7.28849 54.7862 7.24049 54.7862 7.14449C54.7862 7.04849 54.8022 7.00049 54.8342 7.00049L55.9862 7.02449C56.5942 7.05649 57.0822 7.07249 57.4502 7.07249C57.7542 7.07249 58.1942 7.05649 58.7702 7.02449L59.8742 7.00049C59.9062 7.00049 59.9222 7.04849 59.9222 7.14449C59.9222 7.24049 59.9062 7.28849 59.8742 7.28849C59.2502 7.28849 58.7622 7.53649 58.4102 8.03249C58.0582 8.52849 57.8822 9.20849 57.8822 10.0725V16.7445C57.8822 17.8645 57.6342 18.8485 57.1382 19.6965C56.6422 20.5445 55.9382 21.2005 55.0262 21.6645C54.1302 22.1125 53.0902 22.3365 51.9062 22.3365C50.7222 22.3365 49.6742 22.1125 48.7622 21.6645C47.8502 21.2165 47.1302 20.5685 46.6022 19.7205C46.0902 18.8565 45.8342 17.8485 45.8342 16.6965V8.94449C45.8342 8.46449 45.7862 8.11249 45.6902 7.88849C45.6102 7.66449 45.4502 7.51249 45.2102 7.43249C44.9862 7.33649 44.6262 7.28849 44.1302 7.28849C44.0822 7.28849 44.0582 7.24049 44.0582 7.14449C44.0582 7.04849 44.0822 7.00049 44.1302 7.00049L45.4022 7.02449C46.1382 7.05649 46.7222 7.07249 47.1542 7.07249C47.6342 7.07249 48.2422 7.05649 48.9782 7.02449L50.2022 7.00049C50.2502 7.00049 50.2742 7.04849 50.2742 7.14449C50.2742 7.24049 50.2502 7.28849 50.2022 7.28849C49.7062 7.28849 49.3382 7.33649 49.0982 7.43249C48.8742 7.52849 48.7142 7.69649 48.6182 7.93649C48.5382 8.16049 48.4982 8.51249 48.4982 8.99249V15.8565C48.4982 17.7605 48.8742 19.1685 49.6262 20.0805C50.3782 20.9925 51.4422 21.4485 52.8182 21.4485C54.1462 21.4485 55.1862 21.0485 55.9382 20.2485C56.6902 19.4325 57.0662 18.2725 57.0662 16.7685V10.0725ZM63.2852 7.55249L64.0052 7.60049V18.9525C64.0052 19.8005 64.1812 20.4725 64.5332 20.9685C64.8852 21.4645 65.3732 21.7125 65.9972 21.7125C66.0292 21.7125 66.0452 21.7605 66.0452 21.8565C66.0452 21.9525 66.0292 22.0005 65.9972 22.0005C65.5492 22.0005 65.2052 21.9925 64.9652 21.9765L63.6692 21.9525L62.1812 21.9765C61.9092 21.9925 61.5172 22.0005 61.0052 22.0005C60.9572 22.0005 60.9332 21.9525 60.9332 21.8565C60.9332 21.7605 60.9572 21.7125 61.0052 21.7125C61.7092 21.7125 62.2612 21.4645 62.6612 20.9685C63.0772 20.4725 63.2852 19.8005 63.2852 18.9525V7.55249ZM75.5252 22.3605C75.5252 22.4085 75.4852 22.4405 75.4052 22.4565C75.3412 22.4725 75.2932 22.4645 75.2612 22.4325L63.4292 8.96849C62.8692 8.32849 62.3892 7.88849 61.9892 7.64849C61.5892 7.40849 61.1812 7.28849 60.7652 7.28849C60.7332 7.28849 60.7172 7.24049 60.7172 7.14449C60.7172 7.04849 60.7332 7.00049 60.7652 7.00049L61.7732 7.02449C61.9812 7.04049 62.2852 7.04849 62.6852 7.04849L64.5092 7.02449C64.7332 7.00849 65.0052 7.00049 65.3252 7.00049C65.4532 7.00049 65.5492 7.03249 65.6132 7.09649C65.6772 7.16049 65.7892 7.29649 65.9492 7.50449C66.2212 7.87249 66.4132 8.12049 66.5252 8.24849L75.3332 18.4005L75.5252 22.3605ZM75.5252 22.3605L74.8292 21.6405V10.0725C74.8292 9.20849 74.6532 8.52849 74.3012 8.03249C73.9492 7.53649 73.4612 7.28849 72.8372 7.28849C72.8052 7.28849 72.7892 7.24049 72.7892 7.14449C72.7892 7.04849 72.8052 7.00049 72.8372 7.00049L73.8692 7.02449C74.3812 7.05649 74.8132 7.07249 75.1652 7.07249C75.4852 7.07249 75.9332 7.05649 76.5092 7.02449L77.5892 7.00049C77.6212 7.00049 77.6372 7.04849 77.6372 7.14449C77.6372 7.24049 77.6212 7.28849 77.5892 7.28849C76.9492 7.28849 76.4452 7.54449 76.0772 8.05649C75.7092 8.55249 75.5252 9.22449 75.5252 10.0725V22.3605ZM83.2136 7.55249C81.3096 7.55249 79.9416 8.79249 79.1096 11.2725C79.0936 11.3205 79.0456 11.3445 78.9656 11.3445C78.8856 11.3285 78.8456 11.2965 78.8456 11.2485C78.9096 10.6085 78.9816 9.78449 79.0616 8.77649C79.1416 7.75249 79.1816 6.98449 79.1816 6.47249C79.1816 6.39249 79.2216 6.35249 79.3016 6.35249C79.3976 6.35249 79.4456 6.39249 79.4456 6.47249C79.4456 6.82449 79.9016 7.00049 80.8136 7.00049C82.1896 7.04849 83.7976 7.07249 85.6376 7.07249C86.5816 7.07249 87.5816 7.05649 88.6376 7.02449L90.2696 7.00049C90.8776 7.00049 91.3176 6.96049 91.5896 6.88049C91.8776 6.80049 92.0616 6.64049 92.1416 6.40049C92.1576 6.33649 92.2056 6.30449 92.2856 6.30449C92.3816 6.30449 92.4296 6.33649 92.4296 6.40049C92.3816 6.88049 92.3256 7.64849 92.2616 8.70449C92.2136 9.76049 92.1896 10.6085 92.1896 11.2485C92.1896 11.2965 92.1496 11.3205 92.0696 11.3205C91.9896 11.3205 91.9416 11.2965 91.9256 11.2485C91.6856 10.0165 91.2376 9.09649 90.5816 8.48849C89.9256 7.86449 89.1176 7.55249 88.1576 7.55249C87.6936 7.55249 87.3816 7.65649 87.2216 7.86449C87.0776 8.05649 87.0056 8.43249 87.0056 8.99249V20.0565C87.0056 20.5525 87.0536 20.9125 87.1496 21.1365C87.2456 21.3605 87.4296 21.5125 87.7016 21.5925C87.9736 21.6725 88.4056 21.7125 88.9976 21.7125C89.0456 21.7125 89.0696 21.7605 89.0696 21.8565C89.0696 21.9525 89.0456 22.0005 88.9976 22.0005C88.4216 22.0005 87.9656 21.9925 87.6296 21.9765L85.6376 21.9525L83.6936 21.9765C83.3576 21.9925 82.8936 22.0005 82.3016 22.0005C82.2536 22.0005 82.2296 21.9525 82.2296 21.8565C82.2296 21.7605 82.2536 21.7125 82.3016 21.7125C82.8776 21.7125 83.3016 21.6725 83.5736 21.5925C83.8616 21.5125 84.0536 21.3605 84.1496 21.1365C84.2616 20.8965 84.3176 20.5365 84.3176 20.0565V8.94449C84.3176 8.40049 84.2456 8.03249 84.1016 7.84049C83.9576 7.64849 83.6616 7.55249 83.2136 7.55249Z" fill="#17301A"/>
</svg>
